<svg xmlns="http://www.w3.org/2000/svg" viewBox="0 0 820 450" width="800" height="439" font-family="'Source Han Sans SC','Noto Sans CJK SC',sans-serif">
<defs>
<marker id="ar" markerWidth="10" markerHeight="10" refX="8" refY="4" orient="auto"><path d="M1,1 L8,4 L1,7" fill="none" stroke="#2a3550" stroke-width="1.5"/></marker>
<marker id="ara" markerWidth="10" markerHeight="10" refX="8" refY="4" orient="auto"><path d="M1,1 L8,4 L1,7" fill="none" stroke="#e8862e" stroke-width="1.5"/></marker>
</defs>
<rect x="0" y="0" width="820" height="450" fill="#ffffff"/>
<text x="46" y="40" font-size="18" fill="#16213e" font-weight="800" letter-spacing="1">启动装配线：从 main 到事件循环</text>
<text x="774" y="40" text-anchor="end" font-size="10.5" fill="#8b93a7" letter-spacing="3">BOOTSTRAP PIPELINE</text>
<line x1="46" y1="54" x2="774" y2="54" stroke="#16213e" stroke-width="2"/>
<line x1="46" y1="58.5" x2="774" y2="58.5" stroke="#c9cfdd" stroke-width="0.8"/>

<rect x="180.0" y="84" width="180" height="30" rx="3" fill="#16213e"/>
<text x="270" y="103.5" text-anchor="middle" font-size="12.5" fill="#ffffff">node app.js</text>
<line x1="270" y1="116" x2="270" y2="132" stroke="#2a3550" stroke-width="1.4" fill="none" marker-end="url(#ar)"/>
<rect x="70" y="136" width="400" height="40" rx="4" fill="#ffffff" stroke="#c9cfdd" stroke-width="1.2"/>
<rect x="82" y="146.0" width="20" height="20" rx="3" fill="#2a3550"/>
<text x="92" y="160.5" font-size="12" font-weight="700" fill="#ffffff" text-anchor="middle">1</text>
<text x="114" y="161.0" font-size="13.5" fill="#1d2740">进程级初始化<tspan fill="#7a8296" font-size="12">　每进程一次 · 参数解析 / V8 平台 / libuv</tspan></text>
<rect x="70" y="186" width="400" height="40" rx="4" fill="#ffffff" stroke="#c9cfdd" stroke-width="1.2"/>
<rect x="82" y="196.0" width="20" height="20" rx="3" fill="#2a3550"/>
<text x="92" y="210.5" font-size="12" font-weight="700" fill="#ffffff" text-anchor="middle">2</text>
<text x="114" y="211.0" font-size="13.5" fill="#1d2740">创建三层容器<tspan fill="#7a8296" font-size="12">　Isolate → Environment → Realm 与 Context</tspan></text>
<rect x="70" y="236" width="400" height="52" rx="4" fill="#16213e" stroke="#16213e" stroke-width="1.4"/>
<rect x="82" y="252.0" width="20" height="20" rx="3" fill="#e8862e"/>
<text x="92" y="266.5" font-size="12" font-weight="700" fill="#ffffff" text-anchor="middle">3</text>
<text x="114" y="260.0" font-size="13.5" font-weight="700" fill="#ffffff">执行内部引导脚本<tspan font-weight="400" fill="#c3c9d6" font-size="12">　primordials → Binding → process</tspan></text>
<text x="114" y="277.0" font-size="11" fill="#e8862e">③c：process 诞生于此 · 挂上全局</text>
<rect x="70" y="300" width="400" height="40" rx="4" fill="#ffffff" stroke="#c9cfdd" stroke-width="1.2"/>
<rect x="82" y="310.0" width="20" height="20" rx="3" fill="#2a3550"/>
<text x="92" y="324.5" font-size="12" font-weight="700" fill="#ffffff" text-anchor="middle">4</text>
<text x="114" y="325.0" font-size="13.5" fill="#1d2740">加载用户主模块<tspan fill="#7a8296" font-size="12">　你的 app.js · 经 CJS / ESM 加载器</tspan></text>
<rect x="70" y="350" width="400" height="40" rx="4" fill="#ffffff" stroke="#c9cfdd" stroke-width="1.2"/>
<rect x="82" y="360.0" width="20" height="20" rx="3" fill="#2a3550"/>
<text x="92" y="374.5" font-size="12" font-weight="700" fill="#ffffff" text-anchor="middle">5</text>
<text x="114" y="375.0" font-size="13.5" fill="#1d2740">进入事件循环<tspan fill="#7a8296" font-size="12">　第 4 章的心脏开始跳动</tspan></text>
<line x1="270" y1="176" x2="270" y2="183" stroke="#2a3550" stroke-width="1.4" fill="none" marker-end="url(#ar)"/>
<line x1="270" y1="226" x2="270" y2="233" stroke="#2a3550" stroke-width="1.4" fill="none" marker-end="url(#ar)"/>
<line x1="270" y1="288" x2="270" y2="297" stroke="#2a3550" stroke-width="1.4" fill="none" marker-end="url(#ar)"/>
<line x1="270" y1="340" x2="270" y2="347" stroke="#2a3550" stroke-width="1.4" fill="none" marker-end="url(#ar)"/>
<line x1="492" y1="84" x2="492" y2="396" stroke="#c9cfdd" stroke-width="1"/>
<text x="516" y="96" font-size="10.5" fill="#8b93a7" letter-spacing="2.5">BOOTSTRAP ORDER</text>
<text x="516" y="120" font-size="14" fill="#16213e" font-weight="800">引导脚本 · 严格顺序</text>
<line x1="516" y1="132" x2="560" y2="132" stroke="#e8862e" stroke-width="3"/>
<text x="516" y="160" font-size="12.5" fill="#3d4763">a. 加固内建 primordials</text>
<text x="516" y="184" font-size="12.5" fill="#3d4763">b. 搭 Binding 通道（第 3 章）</text>
<text x="516" y="208" font-size="12.5" fill="#3d4763">c. 创建 process 对象 · 挂全局</text>
<text x="516" y="232" font-size="12.5" fill="#3d4763">d. 按启动方式补配置</text>
<text x="516" y="256" font-size="11.5" fill="#8b93a7">主脚本？REPL？Worker？</text>
<text x="516" y="292" font-size="10.5" fill="#8b93a7" letter-spacing="2.5">SNAPSHOT</text>
<text x="516" y="316" font-size="14" fill="#16213e" font-weight="800">快照 · 为什么这么快</text>
<line x1="516" y1="328" x2="560" y2="328" stroke="#e8862e" stroke-width="3"/>
<text x="516" y="356" font-size="12.5" fill="#3d4763">构建期执行引导 · 序列化堆</text>
<text x="516" y="380" font-size="12.5" fill="#3d4763">启动期反序列化 · 跳过执行</text>
<text x="516" y="404" font-size="11.5" fill="#8b93a7">空间（二进制体积）换时间</text>
<text x="70" y="424" font-size="12" fill="#7a8296">几十毫秒内完成全部装配——一半功劳归快照</text>
</svg>
