<svg xmlns="http://www.w3.org/2000/svg" viewBox="0 0 820 620" width="800" height="605" font-family="'Source Han Sans SC','Noto Sans CJK SC',sans-serif">
<defs>
<marker id="ar" markerWidth="10" markerHeight="10" refX="8" refY="4" orient="auto"><path d="M1,1 L8,4 L1,7" fill="none" stroke="#2a3550" stroke-width="1.5"/></marker>
<marker id="ara" markerWidth="10" markerHeight="10" refX="8" refY="4" orient="auto"><path d="M1,1 L8,4 L1,7" fill="none" stroke="#e8862e" stroke-width="1.5"/></marker>
</defs>
<rect x="0" y="0" width="820" height="620" fill="#ffffff"/>
<text x="46" y="40" font-size="18" fill="#16213e" font-weight="800" letter-spacing="1">一个 HTTP 请求 · 零件合练</text>
<text x="774" y="40" text-anchor="end" font-size="10.5" fill="#8b93a7" letter-spacing="3">ONE REQUEST · ALL MECHANISMS</text>
<line x1="46" y1="54" x2="774" y2="54" stroke="#16213e" stroke-width="2"/>
<line x1="46" y1="58.5" x2="774" y2="58.5" stroke="#c9cfdd" stroke-width="0.8"/>

<rect x="50" y="76" width="174" height="30" rx="4" fill="#ffffff" stroke="#2a3550" stroke-width="1.2"/>
<text x="137.0" y="95.5" text-anchor="middle" font-size="12.5" fill="#1d2740" font-weight="700">内核</text>
<rect x="232" y="76" width="174" height="30" rx="4" fill="#ffffff" stroke="#2a3550" stroke-width="1.2"/>
<text x="319.0" y="95.5" text-anchor="middle" font-size="12.5" fill="#1d2740" font-weight="700">libuv · C++</text>
<rect x="414" y="76" width="174" height="30" rx="4" fill="#ffffff" stroke="#2a3550" stroke-width="1.2"/>
<text x="501.0" y="95.5" text-anchor="middle" font-size="12.5" fill="#1d2740" font-weight="700">JS 运行时</text>
<rect x="596" y="76" width="174" height="30" rx="4" fill="#ffffff" stroke="#2a3550" stroke-width="1.2"/>
<text x="683.0" y="95.5" text-anchor="middle" font-size="12.5" fill="#1d2740" font-weight="700">你的代码</text>
<line x1="228" y1="112" x2="228" y2="556" stroke="#c9cfdd" stroke-width="1" stroke-dasharray="4 4"/>
<line x1="410" y1="112" x2="410" y2="556" stroke="#c9cfdd" stroke-width="1" stroke-dasharray="4 4"/>
<line x1="592" y1="112" x2="592" y2="556" stroke="#c9cfdd" stroke-width="1" stroke-dasharray="4 4"/>
<rect x="57" y="140" width="160" height="40" rx="4" fill="#ffffff" stroke="#c9cfdd" stroke-width="1.2"/>
<text x="137.0" y="164.5" text-anchor="middle" font-size="11.5" fill="#1d2740">包到达 · epoll 举手</text>
<rect x="205" y="130" width="20" height="20" rx="3" fill="#e8862e"/>
<text x="215" y="144.5" font-size="12" font-weight="700" fill="#ffffff" text-anchor="middle">5</text>
<line x1="217" y1="220" x2="235" y2="220" stroke="#2a3550" stroke-width="1.4" fill="none" marker-end="url(#ar)"/>
<rect x="239" y="200" width="160" height="40" rx="4" fill="#ffffff" stroke="#c9cfdd" stroke-width="1.2"/>
<text x="319.0" y="224.5" text-anchor="middle" font-size="11.5" fill="#1d2740">read() 入 Buffer</text>
<rect x="387" y="190" width="20" height="20" rx="3" fill="#e8862e"/>
<text x="397" y="204.5" font-size="12" font-weight="700" fill="#ffffff" text-anchor="middle">7</text>
<rect x="239" y="260" width="160" height="40" rx="4" fill="#16213e" stroke="#16213e" stroke-width="1.2"/>
<text x="319.0" y="284.5" text-anchor="middle" font-size="11.5" fill="#ffffff" font-weight="700">llhttp · 同步解析</text>
<rect x="387" y="250" width="20" height="20" rx="3" fill="#e8862e"/>
<text x="397" y="264.5" font-size="12" font-weight="700" fill="#ffffff" text-anchor="middle">10</text>
<line x1="399" y1="340" x2="417" y2="340" stroke="#2a3550" stroke-width="1.4" fill="none" marker-end="url(#ar)"/>
<rect x="421" y="320" width="160" height="40" rx="4" fill="#ffffff" stroke="#c9cfdd" stroke-width="1.2"/>
<text x="501.0" y="344.5" text-anchor="middle" font-size="11.5" fill="#1d2740">emit('request')</text>
<rect x="569" y="310" width="20" height="20" rx="3" fill="#e8862e"/>
<text x="579" y="324.5" font-size="12" font-weight="700" fill="#ffffff" text-anchor="middle">9</text>
<line x1="581" y1="400" x2="599" y2="400" stroke="#2a3550" stroke-width="1.4" fill="none" marker-end="url(#ar)"/>
<rect x="603" y="380" width="160" height="40" rx="4" fill="#ffffff" stroke="#c9cfdd" stroke-width="1.2"/>
<text x="683.0" y="404.5" text-anchor="middle" font-size="11.5" fill="#1d2740">回调跑 · res.write</text>
<rect x="751" y="370" width="20" height="20" rx="3" fill="#e8862e"/>
<text x="761" y="384.5" font-size="12" font-weight="700" fill="#ffffff" text-anchor="middle">8</text>
<line x1="603" y1="460" x2="221" y2="460" stroke="#2a3550" stroke-width="1.4" fill="none" marker-end="url(#ar)"/>
<text x="300" y="452" font-size="11.5" fill="#7a8296">write() · 同一个 fd，同一个系统调用</text>
<rect x="225" y="470" width="20" height="20" rx="3" fill="#e8862e"/>
<text x="235" y="484.5" font-size="12" font-weight="700" fill="#ffffff" text-anchor="middle">6</text>
<rect x="57" y="500" width="160" height="40" rx="4" fill="#ffffff" stroke="#c9cfdd" stroke-width="1.2"/>
<text x="137.0" y="524.5" text-anchor="middle" font-size="11.5" fill="#1d2740">fd 不挂 · 等下一请求</text>
<rect x="205" y="490" width="20" height="20" rx="3" fill="#e8862e"/>
<text x="215" y="504.5" font-size="12" font-weight="700" fill="#ffffff" text-anchor="middle">4</text>
<rect x="46" y="576" width="20" height="20" rx="3" fill="#e8862e"/>
<text x="56" y="590.5" font-size="12" font-weight="700" fill="#ffffff" text-anchor="middle">10</text>
<text x="74" y="591" font-size="11.5" fill="#7a8296">徽章数字 = 该机制的讲解章节</text>
</svg>
