<svg xmlns="http://www.w3.org/2000/svg" viewBox="0 0 820 440" width="800" height="429" font-family="'Source Han Sans SC','Noto Sans CJK SC',sans-serif">
<defs>
<marker id="ar" markerWidth="10" markerHeight="10" refX="8" refY="4" orient="auto"><path d="M1,1 L8,4 L1,7" fill="none" stroke="#2a3550" stroke-width="1.5"/></marker>
<marker id="ara" markerWidth="10" markerHeight="10" refX="8" refY="4" orient="auto"><path d="M1,1 L8,4 L1,7" fill="none" stroke="#e8862e" stroke-width="1.5"/></marker>
</defs>
<rect x="0" y="0" width="820" height="440" fill="#ffffff"/>
<text x="46" y="40" font-size="18" fill="#16213e" font-weight="800" letter-spacing="1">fd 背后的三层结构</text>
<text x="774" y="40" text-anchor="end" font-size="10.5" fill="#8b93a7" letter-spacing="3">FD · STRUCT FILE · INODE</text>
<line x1="46" y1="54" x2="774" y2="54" stroke="#16213e" stroke-width="2"/>
<line x1="46" y1="58.5" x2="774" y2="58.5" stroke="#c9cfdd" stroke-width="0.8"/>

<rect x="46" y="78" width="214" height="268" rx="4" fill="#f4f6fa" stroke="#2a3550" stroke-width="1.4"/>
<text x="62" y="102" font-size="10.5" fill="#7a8296" letter-spacing="2.5">进程内 · fd 表</text>

<rect x="64" y="116" width="178" height="34" rx="4" fill="#ffffff" stroke="#2a3550" stroke-width="1.2"/>
<text x="153.0" y="137.5" text-anchor="middle" font-size="12" fill="#1d2740"></text>
<rect x="72" y="123" width="20" height="20" rx="3" fill="#2a3550"/>
<text x="82" y="137.5" font-size="12" font-weight="700" fill="#ffffff" text-anchor="middle">0</text>
<text x="104" y="138" font-size="12" fill="#1d2740">fd 0</text>
<rect x="64" y="162" width="178" height="34" rx="4" fill="#ffffff" stroke="#2a3550" stroke-width="1.2"/>
<text x="153.0" y="183.5" text-anchor="middle" font-size="12" fill="#1d2740"></text>
<rect x="72" y="169" width="20" height="20" rx="3" fill="#2a3550"/>
<text x="82" y="183.5" font-size="12" font-weight="700" fill="#ffffff" text-anchor="middle">1</text>
<text x="104" y="184" font-size="12" fill="#1d2740">fd 1</text>
<rect x="64" y="208" width="178" height="34" rx="4" fill="#ffffff" stroke="#2a3550" stroke-width="1.2"/>
<text x="153.0" y="229.5" text-anchor="middle" font-size="12" fill="#1d2740"></text>
<rect x="72" y="215" width="20" height="20" rx="3" fill="#2a3550"/>
<text x="82" y="229.5" font-size="12" font-weight="700" fill="#ffffff" text-anchor="middle">2</text>
<text x="104" y="230" font-size="12" fill="#1d2740">fd 2</text>
<rect x="64" y="254" width="178" height="34" rx="4" fill="#ffffff" stroke="#2a3550" stroke-width="1.2"/>
<text x="153.0" y="275.5" text-anchor="middle" font-size="12" fill="#1d2740"></text>
<rect x="72" y="261" width="20" height="20" rx="3" fill="#2a3550"/>
<text x="82" y="275.5" font-size="12" font-weight="700" fill="#ffffff" text-anchor="middle">…</text>
<text x="104" y="276" font-size="12" fill="#1d2740">fd 3 …</text>
<text x="64" y="324" font-size="11" fill="#7a8296">数组下标 · 进程私有</text>
<rect x="302" y="78" width="216" height="268" rx="4" fill="#f4f6fa" stroke="#2a3550" stroke-width="1.4"/>
<text x="318" y="102" font-size="10.5" fill="#7a8296" letter-spacing="2.5">内核态 · 每次 open 新建</text>

<rect x="318" y="116" width="184" height="150" rx="4" fill="#ffffff" stroke="#2a3550" stroke-width="1.2"/>
<text x="410.0" y="195.5" text-anchor="middle" font-size="12" fill="#1d2740"></text>
<text x="332" y="142" font-size="13.5" font-weight="700" fill="#1d2740">struct file</text>
<text x="332" y="168" font-size="12" font-weight="700" fill="#c56a15">· f_op 操作函数表</text>
<text x="332" y="192" font-size="12" fill="#3d4763">· f_pos 读写偏移</text>
<text x="332" y="216" font-size="12" fill="#3d4763">· f_flags 打开标志</text>
<text x="332" y="248" font-size="12" fill="#7a8296">一次打开的“会话记录”</text>
<rect x="560" y="78" width="214" height="268" rx="4" fill="#f4f6fa" stroke="#2a3550" stroke-width="1.4"/>
<text x="576" y="102" font-size="10.5" fill="#7a8296" letter-spacing="2.5">资源本体 · 内核全局唯一</text>

<rect x="576" y="116" width="182" height="150" rx="4" fill="#ffffff" stroke="#2a3550" stroke-width="1.2"/>
<text x="667.0" y="195.5" text-anchor="middle" font-size="12" fill="#1d2740"></text>
<text x="590" y="142" font-size="13.5" font-weight="700" fill="#1d2740">inode</text>
<text x="590" y="168" font-size="12" fill="#3d4763">· 磁盘文件的 inode</text>
<text x="590" y="192" font-size="12" fill="#3d4763">· socket 的 inode</text>
<text x="590" y="216" font-size="12" fill="#3d4763">· pipe 的 inode</text>
<text x="590" y="248" font-size="12" fill="#7a8296">socket/pipe 是内存中匿名对象</text>
<line x1="242" y1="133" x2="316" y2="176" stroke="#2a3550" stroke-width="1.4" fill="none" marker-end="url(#ar)"/>
<line x1="242" y1="179" x2="316" y2="190" stroke="#2a3550" stroke-width="1.4" fill="none" marker-end="url(#ar)"/>
<line x1="242" y1="225" x2="316" y2="204" stroke="#2a3550" stroke-width="1.4" fill="none" marker-end="url(#ar)"/>
<line x1="502" y1="191" x2="574" y2="191" stroke="#2a3550" stroke-width="1.4" fill="none" marker-end="url(#ar)"/>
<text x="46" y="380" font-size="12" fill="#7a8296">进程私有的“号码牌”</text>
<text x="318" y="380" font-size="12" fill="#7a8296">打开方式与进度的“会话记录”</text>
<text x="576" y="380" font-size="12" fill="#7a8296">资源的本体</text>
<rect x="46" y="396" width="728" height="34" rx="4" fill="#f4f6fa" stroke="#c9cfdd" stroke-width="1.2"/>
<text x="410.0" y="417.5" text-anchor="middle" font-size="12" fill="#1d2740" font-weight="700">write(fd)：内核顺着三层找到 f_op —— 同一个系统调用，多态分发</text>
</svg>
